<svg version="1.1" width="50" height="50" viewBox="0 0 491.87 515.53" xmlns="http://www.w3.org/2000/svg">
 <path d="m7.7307 514.23c-1.5078-0.76845-3.8002-2.9354-5.0943-4.8153-2.0125-2.9236-2.3737-4.3068-2.4969-9.5612-0.38477-16.419-0.08845-19.812 2.356-26.982 7.9092-23.197 25.97-42.427 48.29-51.416 22.675-9.1326 39.082-24.553 49.756-46.765 4.5557-9.4802 10.056-14.715 17.417-16.578 1.259-0.31863 4.031-1.8916 6.1599-3.4956 4.9546-3.7329 9.6398-5.0394 15.598-4.3498l4.6987 0.54378 5.7492-5.2287c3.1621-2.8758 6.0552-5.2416 6.4293-5.2574 0.37406-0.0158 3.8852 3.0983 7.8025 6.9202 3.9173 3.8219 10.449 9.4675 14.514 12.546 8.4409 6.3913 25.636 15.584 35.317 18.88 27.209 9.2653 57.068 9.3127 83.698 0.1327 9.4179-3.2466 14.611-5.6704 15.022-7.0119 0.15449-0.50363-9.0308-11.005-20.412-23.336-42.166-45.688-83.945-91.343-103.76-113.39-11.217-12.478-20.983-22.688-21.704-22.688-0.72029 0-13.687 13.029-28.814 28.954-15.128 15.925-28.068 28.954-28.757 28.954-1.6263 0-59.945-61.444-59.945-63.157 0-0.71691 27.134-29.583 60.297-64.147 54.785-57.099 60.539-62.844 62.945-62.844 3.38 0 103.65 14.626 104.19 15.198 0.22365 0.23534-16.737 18.472-37.69 40.526-34.618 36.436-37.989 40.234-36.923 41.585 2.9547 3.7467 156.26 155.53 157.35 155.79 1.4596 0.34573 2.128-0.48 8.6322-10.664 14.198-22.231 20.993-44.858 21.821-72.669 1.2032-40.419-9.3517-86.298-29.671-128.97-21.718-45.609-54.875-83.858-98.857-114.04-5.2776-3.6213-9.2034-6.7218-8.7238-6.89 0.47958-0.16823 5.8284 1.5025 11.886 3.7126 70.984 25.898 129.76 80.818 161.78 151.18 12.508 27.478 19.617 51.424 24.25 81.677 1.7426 11.379 2.4092 39.525 1.2354 52.16-3.1603 34.018-13.071 64.285-29.753 90.866-3.164 5.0414-5.6362 9.684-5.4938 10.317 0.14226 0.63293 14.673 15.399 32.29 32.812 17.617 17.414 33.582 33.674 35.477 36.134 14.118 18.321 6.8269 45.661-14.474 54.274-6.5121 2.6331-12.641 3.0795-18.962 1.3814-8.9117-2.3938-12.865-5.6234-28.589-23.353-27.973-31.541-52.04-57.964-53.015-58.206-0.54141-0.13413-5.349 1.9394-10.684 4.6079-23.452 11.731-46.032 16.828-74.405 16.795-22.007-0.0257-38.652-2.8762-58.62-10.039-25.994-9.3238-49.392-24.958-69.467-46.417-3.8069-4.0693-7.1936-7.2218-7.5261-7.0056-0.33245 0.21623-1.3693 2.0558-2.3041 4.0879-2.443 5.3107-6.7803 9.3414-15.838 14.719-21.491 12.758-33.52 27.687-42.609 52.883-8.5113 23.594-30.347 44.904-52.105 50.849-2.7103 0.74059-9.5633 1.5348-15.229 1.7649-8.3975 0.34106-10.807 0.16019-13.042-0.97883z" fill="#FFD900" stroke-width=".84254"/>
</svg>
